<svg width="211" height="17" viewBox="0 0 211 17" fill="none" xmlns="http://www.w3.org/2000/svg">
<path d="M203.539 16.9337C202.052 16.9337 200.76 16.6257 199.663 16.0097C198.581 15.3786 197.747 14.4771 197.161 13.3051C196.575 12.1331 196.282 10.7133 196.282 9.04545C196.282 7.37765 196.605 5.90517 197.251 4.62802C197.912 3.33585 198.814 2.32916 199.956 1.60794C201.113 0.886729 202.45 0.526123 203.968 0.526123C205.365 0.526123 206.59 0.856678 207.641 1.51779C208.708 2.1789 209.535 3.10296 210.12 4.28995C210.706 5.46192 210.999 6.84425 210.999 8.43693C210.999 10.1648 210.676 11.6674 210.03 12.9445C209.384 14.2066 208.498 15.1908 207.371 15.897C206.259 16.5881 204.982 16.9337 203.539 16.9337ZM203.539 15.3335C204.666 15.3335 205.65 15.0631 206.492 14.5222C207.348 13.9662 208.017 13.1699 208.498 12.1331C208.979 11.0964 209.219 9.8493 209.219 8.39185C209.219 7.1147 209.001 6.01034 208.565 5.07878C208.145 4.13219 207.544 3.40346 206.762 2.8926C205.981 2.38174 205.057 2.12631 203.99 2.12631C202.833 2.12631 201.804 2.41931 200.902 3.00529C200.016 3.57625 199.317 4.3801 198.806 5.41685C198.311 6.45359 198.063 7.66312 198.063 9.04545C198.063 11.0588 198.551 12.6139 199.528 13.7108C200.504 14.7926 201.842 15.3335 203.539 15.3335Z" fill="url(#paint0_linear_23_127)"/>
<path d="M186.88 16.7534V0.751495H188.615V16.7534H186.88Z" fill="url(#paint1_linear_23_127)"/>
<path d="M178.525 16.9337C178.164 16.9337 177.871 16.821 177.646 16.5956C177.42 16.3552 177.308 16.0622 177.308 15.7167C177.308 15.3711 177.42 15.0856 177.646 14.8602C177.871 14.6198 178.164 14.4996 178.525 14.4996C178.9 14.4996 179.193 14.6198 179.404 14.8602C179.629 15.0856 179.742 15.3711 179.742 15.7167C179.742 16.0622 179.629 16.3552 179.404 16.5956C179.193 16.821 178.9 16.9337 178.525 16.9337Z" fill="url(#paint2_linear_23_127)"/>
<path d="M173.113 0.751495L172.955 2.26154H167.839V16.7534H166.081V2.26154H160.853V0.751495H173.113Z" fill="url(#paint3_linear_23_127)"/>
<path d="M155.735 2.239H148.636V8.12139H155.532V9.60889H148.636V16.7534H146.923V0.751495H155.735V2.239Z" fill="url(#paint4_linear_23_127)"/>
<path d="M136.979 16.7534V0.751495H138.715V16.7534H136.979Z" fill="url(#paint5_linear_23_127)"/>
<path d="M116.316 16.7534V0.751495H118.052V7.85093H127.044V0.751495H128.78V16.7534H127.044V9.38351H118.052V16.7534H116.316Z" fill="url(#paint6_linear_23_127)"/>
<path d="M103.731 16.9337C100.185 16.9337 98.2317 15.296 97.8711 12.0205L99.4938 11.7951C99.7192 13.0722 100.17 13.9963 100.846 14.5672C101.537 15.1232 102.536 15.4011 103.844 15.4011C104.956 15.4011 105.819 15.1532 106.435 14.6574C107.067 14.1465 107.382 13.4479 107.382 12.5614C107.382 11.9904 107.247 11.5321 106.976 11.1865C106.721 10.841 106.323 10.563 105.782 10.3526C105.256 10.1273 104.587 9.92443 103.776 9.74412C102.784 9.51875 101.92 9.24829 101.184 8.93276C100.448 8.61723 99.877 8.16647 99.4713 7.58049C99.0656 6.9945 98.8628 6.18314 98.8628 5.14639C98.8628 4.2599 99.0806 3.47108 99.5164 2.77991C99.9671 2.07373 100.576 1.5253 101.342 1.13465C102.123 0.728964 103.01 0.526123 104.001 0.526123C105.384 0.526123 106.511 0.901755 107.382 1.65302C108.269 2.40428 108.794 3.44854 108.96 4.78579L107.45 5.05624C107.239 4.0195 106.849 3.26072 106.278 2.77991C105.722 2.2991 104.948 2.0587 103.956 2.0587C102.935 2.0587 102.116 2.33667 101.5 2.8926C100.899 3.43351 100.598 4.16224 100.598 5.07878C100.598 6.05542 100.914 6.76161 101.545 7.19734C102.176 7.63307 103.137 7.98617 104.43 8.25662C105.421 8.46698 106.263 8.72992 106.954 9.04545C107.66 9.34595 108.193 9.77417 108.554 10.3301C108.93 10.871 109.118 11.6073 109.118 12.5388C109.118 13.4103 108.885 14.1766 108.419 14.8377C107.968 15.4988 107.337 16.0172 106.526 16.3928C105.714 16.7534 104.783 16.9337 103.731 16.9337Z" fill="url(#paint7_linear_23_127)"/>
<path d="M93.1996 15.018L93.5827 16.3703C93.1169 16.7158 92.5009 16.8886 91.7346 16.8886C91.0885 16.8886 90.5025 16.7384 89.9766 16.4379C89.4508 16.1374 88.9399 15.6265 88.4441 14.9053L85.4465 10.4879C85.2512 10.2024 85.0183 9.9695 84.7478 9.78919C84.4774 9.59387 84.1994 9.4962 83.9139 9.4962H83.373V16.7534H81.6602V0.751495H86.1677C87.9557 0.751495 89.323 1.14215 90.2696 1.92347C91.2312 2.68975 91.7121 3.74152 91.7121 5.07877C91.7121 6.04039 91.4717 6.84424 90.9908 7.49033C90.5251 8.13641 89.894 8.62474 89.0977 8.95529C88.3013 9.28585 87.4223 9.45113 86.4607 9.45113H86.3255C86.7462 9.66148 87.1744 10.0897 87.6102 10.7358L89.7062 13.8009C89.9917 14.2367 90.2396 14.5672 90.4499 14.7926C90.6753 15.018 90.9007 15.1758 91.1261 15.2659C91.3665 15.341 91.6595 15.3786 92.0051 15.3786C92.2304 15.3786 92.4408 15.3485 92.6361 15.2884C92.8314 15.2133 93.0193 15.1232 93.1996 15.018ZM86.0325 2.19392H83.373V8.09885H85.8297C87.1519 8.09885 88.1736 7.86596 88.8948 7.40018C89.616 6.91937 89.9766 6.16059 89.9766 5.12385C89.9766 4.20731 89.6611 3.49361 89.0301 2.98275C88.399 2.45686 87.3998 2.19392 86.0325 2.19392Z" fill="url(#paint8_linear_23_127)"/>
<path d="M74.2006 2.239H66.6504V7.87347H73.9977V9.36097H66.6504V15.2659H74.5161L74.3809 16.7534H64.9375V0.751495H74.2006V2.239Z" fill="url(#paint9_linear_23_127)"/>
<path d="M56.54 0.751495H58.2078L53.565 16.7534H51.5365L48.2009 3.18559L44.2568 16.7534H42.2284L38.2617 0.751495H40.0197L43.3327 14.7025L47.3896 0.751495H49.2602L52.6409 14.6574L56.54 0.751495Z" fill="url(#paint10_linear_23_127)"/>
<path d="M24.6937 16.9337C23.2062 16.9337 21.9141 16.6257 20.8172 16.0097C19.7354 15.3786 18.9015 14.4771 18.3155 13.3051C17.7295 12.1331 17.4365 10.7133 17.4365 9.04545C17.4365 7.37765 17.7596 5.90517 18.4057 4.62802C19.0668 3.33585 19.9683 2.32916 21.1102 1.60794C22.2671 0.886729 23.6044 0.526123 25.1219 0.526123C26.5193 0.526123 27.7439 0.856678 28.7956 1.51779C29.8624 2.1789 30.6888 3.10296 31.2748 4.28995C31.8608 5.46192 32.1538 6.84425 32.1538 8.43693C32.1538 10.1648 31.8307 11.6674 31.1846 12.9445C30.5386 14.2066 29.6521 15.1908 28.5252 15.897C27.4133 16.5881 26.1362 16.9337 24.6937 16.9337ZM24.6937 15.3335C25.8206 15.3335 26.8048 15.0631 27.6462 14.5222C28.5026 13.9662 29.1713 13.1699 29.6521 12.1331C30.1329 11.0964 30.3733 9.8493 30.3733 8.39185C30.3733 7.1147 30.1554 6.01034 29.7197 5.07878C29.299 4.13219 28.698 3.40346 27.9166 2.8926C27.1353 2.38174 26.2113 2.12631 25.1445 2.12631C23.9875 2.12631 22.9583 2.41931 22.0568 3.00529C21.1703 3.57625 20.4716 4.3801 19.9608 5.41685C19.4649 6.45359 19.217 7.66312 19.217 9.04545C19.217 11.0588 19.7053 12.6139 20.682 13.7108C21.6586 14.7926 22.9959 15.3335 24.6937 15.3335Z" fill="url(#paint11_linear_23_127)"/>
<path d="M1.71288 16.7534H0V0.751495H5.18372C7.03183 0.751495 8.46674 1.14966 9.48846 1.946C10.5252 2.74234 11.0436 3.89929 11.0436 5.41684C11.0436 6.93439 10.5177 8.1289 9.46592 9.00037C8.41415 9.85681 6.78391 10.285 4.57519 10.285H1.71288V16.7534ZM5.00341 2.19392H1.71288V8.82006H4.66535C6.33315 8.82006 7.52766 8.53458 8.24887 7.96362C8.97008 7.39266 9.33069 6.54374 9.33069 5.41684C9.33069 4.30497 8.9776 3.49361 8.27141 2.98275C7.56522 2.45686 6.47589 2.19392 5.00341 2.19392Z" fill="url(#paint12_linear_23_127)"/>
<defs>
<linearGradient id="paint0_linear_23_127" x1="105.224" y1="-5.78449" x2="105.224" y2="22.3879" gradientUnits="userSpaceOnUse">
<stop stop-color="#EAEF00"/>
<stop offset="0.71875" stop-color="#10B1A7"/>
</linearGradient>
<linearGradient id="paint1_linear_23_127" x1="105.225" y1="-5.78449" x2="105.225" y2="22.3879" gradientUnits="userSpaceOnUse">
<stop stop-color="#EAEF00"/>
<stop offset="0.71875" stop-color="#10B1A7"/>
</linearGradient>
<linearGradient id="paint2_linear_23_127" x1="105.225" y1="-5.78449" x2="105.225" y2="22.3879" gradientUnits="userSpaceOnUse">
<stop stop-color="#EAEF00"/>
<stop offset="0.71875" stop-color="#10B1A7"/>
</linearGradient>
<linearGradient id="paint3_linear_23_127" x1="105.224" y1="-5.78449" x2="105.224" y2="22.3879" gradientUnits="userSpaceOnUse">
<stop stop-color="#EAEF00"/>
<stop offset="0.71875" stop-color="#10B1A7"/>
</linearGradient>
<linearGradient id="paint4_linear_23_127" x1="105.224" y1="-5.78449" x2="105.224" y2="22.3879" gradientUnits="userSpaceOnUse">
<stop stop-color="#EAEF00"/>
<stop offset="0.71875" stop-color="#10B1A7"/>
</linearGradient>
<linearGradient id="paint5_linear_23_127" x1="105.225" y1="-5.78449" x2="105.225" y2="22.3879" gradientUnits="userSpaceOnUse">
<stop stop-color="#EAEF00"/>
<stop offset="0.71875" stop-color="#10B1A7"/>
</linearGradient>
<linearGradient id="paint6_linear_23_127" x1="105.224" y1="-5.78449" x2="105.224" y2="22.3879" gradientUnits="userSpaceOnUse">
<stop stop-color="#EAEF00"/>
<stop offset="0.71875" stop-color="#10B1A7"/>
</linearGradient>
<linearGradient id="paint7_linear_23_127" x1="105.224" y1="-5.78449" x2="105.224" y2="22.3879" gradientUnits="userSpaceOnUse">
<stop stop-color="#EAEF00"/>
<stop offset="0.71875" stop-color="#10B1A7"/>
</linearGradient>
<linearGradient id="paint8_linear_23_127" x1="105.224" y1="-5.78449" x2="105.224" y2="22.3879" gradientUnits="userSpaceOnUse">
<stop stop-color="#EAEF00"/>
<stop offset="0.71875" stop-color="#10B1A7"/>
</linearGradient>
<linearGradient id="paint9_linear_23_127" x1="105.225" y1="-5.78449" x2="105.225" y2="22.3879" gradientUnits="userSpaceOnUse">
<stop stop-color="#EAEF00"/>
<stop offset="0.71875" stop-color="#10B1A7"/>
</linearGradient>
<linearGradient id="paint10_linear_23_127" x1="105.224" y1="-5.78449" x2="105.224" y2="22.3879" gradientUnits="userSpaceOnUse">
<stop stop-color="#EAEF00"/>
<stop offset="0.71875" stop-color="#10B1A7"/>
</linearGradient>
<linearGradient id="paint11_linear_23_127" x1="105.224" y1="-5.78449" x2="105.224" y2="22.3879" gradientUnits="userSpaceOnUse">
<stop stop-color="#EAEF00"/>
<stop offset="0.71875" stop-color="#10B1A7"/>
</linearGradient>
<linearGradient id="paint12_linear_23_127" x1="105.225" y1="-5.78449" x2="105.225" y2="22.3879" gradientUnits="userSpaceOnUse">
<stop stop-color="#EAEF00"/>
<stop offset="0.71875" stop-color="#10B1A7"/>
</linearGradient>
</defs>
</svg>
